<svg width="120" height="100" viewBox="0 0 120 100" fill="none" xmlns="http://www.w3.org/2000/svg">
    <g id="triangles" clip-path="url(#clip0_2_2)">
        <g id="darkGroup">
            <path 
            id="dark1" 
            opacity="0.7" 
            d="M59 47.7679C60.3334 48.5377 60.3334 50.4623 59 51.2321L26.75 69.8516C25.4167 70.6214 23.75 69.6591 23.75 68.1195L23.75 30.8805C23.75 29.3409 25.4167 28.3786 26.75 29.1484L59 47.7679Z" fill="#6633FF"
            />
            <path 
            id="dark2" 
            opacity="0.7" 
            d="M44 47.7679C45.3333 48.5377 45.3333 50.4623 44 51.2321L11.75 69.8516C10.4167 70.6214 8.75 69.6591 8.75 68.1195L8.75 30.8805C8.75 29.3409 10.4167 28.3786 11.75 29.1484L44 47.7679Z" fill="#6633FF"
            />
            </g>
        <g id="lightGroup">
            <path 
            id="light1" 
            opacity="0.7" 
            d="M44 47.7679C45.3333 48.5377 45.3333 50.4623 44 51.2321L11.75 69.8516C10.4167 70.6214 8.75 69.6591 8.75 68.1195L8.75 30.8805C8.75 29.3409 10.4167 28.3786 11.75 29.1484L44 47.7679Z" fill="#43C4ED"
            />
        </g>
    </g>
        <defs>
        <clipPath id="clip0_2_2">
        <rect 
            width="120" 
            height="100" 
            fill="white"
            />
        </clipPath>
    </defs>
</svg>
